<svg width="70" height="70" viewBox="0 0 70 70" fill="none" xmlns="http://www.w3.org/2000/svg">
<g clip-path="url(#clip0_10578_385183)">
<path d="M16.6115 27.8596H25.9846C26.9731 27.8596 27.7774 27.0554 27.7774 26.0669V19.3803C27.7774 18.2161 26.6405 17.3476 25.5172 17.6507C23.0645 18.3113 20.649 16.2796 20.8164 13.7617C20.9698 11.4544 23.2641 9.79016 25.5109 10.3912C26.6332 10.6911 27.7774 9.83692 27.7774 8.66797V1.79266C27.7774 0.80418 26.9732 0 25.9846 0H4.00162C1.79512 0 0 1.79936 0 4.01105V8.20668C0 8.77311 0.459101 9.23207 1.02539 9.23207C1.59168 9.23207 2.05078 8.77311 2.05078 8.20668V4.01105C2.05078 2.93016 2.92592 2.05078 4.00162 2.05078H25.7266V8.3352C22.3442 7.63178 18.9994 10.1757 18.7701 13.6257C18.5211 17.3686 22.0411 20.4742 25.7266 19.7079V25.8088H14.9749C14.2246 25.8088 13.6356 26.7138 14.1369 27.425C15.9291 29.9674 13.9077 33.5472 10.8183 33.3387C7.96592 33.1443 6.36767 29.778 8.02648 27.425C8.52769 26.7138 7.93857 25.8088 7.1884 25.8088H2.05078V12.301C2.05078 11.7346 1.59168 11.2756 1.02539 11.2756C0.459101 11.2756 0 11.7346 0 12.301V26.0669C0 27.0554 0.80418 27.8596 1.79266 27.8596H5.54996C4.45881 31.3567 7.01559 35.1352 10.6788 35.3847C14.6675 35.6569 17.8026 31.6809 16.6115 27.8596Z" fill="#001081"/>
<path d="M66.0023 16.332H44.0192C43.0307 16.332 42.2265 17.1362 42.2265 18.1247V24.6679C38.8441 23.9639 35.4994 26.5073 35.27 29.9576C35.0212 33.7001 38.5411 36.8073 42.2265 36.0388V42.1408H32.7478C32.1599 42.1408 31.6102 42.4292 31.2772 42.9123C30.94 43.4017 30.8656 44.0274 31.0782 44.5862C31.9543 46.888 30.316 49.5023 27.8448 49.6706C25.1629 49.8548 23.122 47.108 24.0864 44.5821C24.2988 44.0259 24.2249 43.4023 23.8887 42.914C23.5554 42.4299 23.0048 42.1408 22.4161 42.1408H18.2927C17.3042 42.1408 16.5 42.945 16.5 43.9335V65.9894C16.5 68.2011 18.2951 70.0004 20.5016 70.0004H66.0024C68.2088 70.0007 70.0039 68.2013 70.0039 65.9896V60.2356C70.0039 59.6691 69.545 59.2102 68.9785 59.2102C68.4121 59.2102 67.9531 59.6691 67.9531 60.2356V65.9896C67.9531 67.0705 67.0781 67.9499 66.0023 67.9499H44.2773V63.8942C44.2773 63.0485 43.3443 62.6224 42.7042 63.0272C40.8754 64.1825 38.3472 62.783 38.362 60.5975C38.3765 58.428 40.8465 57.0295 42.7042 58.2032C43.3789 58.6297 44.2773 58.1501 44.2773 57.3363V44.1918H51.125C51.935 44.1918 52.4289 43.2552 51.971 42.587C51.3965 41.7482 51.0893 40.7447 51.0893 39.7268C51.0972 33.1007 61.1333 33.1082 61.1413 39.7268C61.1413 40.7448 60.8341 41.7483 60.2596 42.587C59.7726 43.2982 60.3598 44.1918 61.1056 44.1918H67.9531V56.1433C67.9531 56.7097 68.4121 57.1687 68.9785 57.1687C69.545 57.1687 70.0039 56.7097 70.0039 56.1433V20.3432C70.0039 18.1314 68.2088 16.332 66.0023 16.332ZM42.2265 65.4044V67.9499H20.5015C19.4258 67.9499 18.5506 67.0705 18.5506 65.9896V44.1919H22.0523C20.8638 47.9996 23.9921 51.9909 27.9842 51.7169C31.6471 51.4674 34.2049 47.69 33.1109 44.1919H42.2265V55.8246C39.4641 55.23 36.6488 57.2504 36.3412 60.0664C35.9861 63.318 38.995 66.1024 42.2265 65.4044ZM62.7738 42.1411C63.0499 41.3749 63.1922 40.5628 63.1922 39.7331C63.1922 30.3572 48.9136 30.45 49.0404 39.8292C49.051 40.6254 49.1914 41.4047 49.4566 42.1411H44.2773V34.5938C44.1181 33.7268 43.6178 33.4241 42.776 33.6856C40.2211 35.0242 37.1258 32.9573 37.3162 30.0939C37.4921 27.4514 40.4168 25.7861 42.776 27.0219C43.6178 27.2833 44.1183 26.9806 44.2773 26.1136V18.3828H66.0023C67.078 18.3828 67.9531 19.2623 67.9531 20.3432V42.1411H62.7738Z" fill="#001081"/>
<path d="M37.3984 20.1879C37.3984 20.7543 37.8574 21.2132 38.4238 21.2132C38.9903 21.2132 39.4492 20.7543 39.4492 20.1879V15.8819L45.4082 9.92287H58.8112C59.2551 11.4296 60.6501 12.5331 62.2987 12.5331C64.3035 12.5331 65.9344 10.9022 65.9344 8.89748C65.9344 6.89277 64.3035 5.26172 62.2987 5.26172C60.6501 5.26172 59.2551 6.36518 58.8112 7.87209H44.9835C44.7115 7.87209 44.4508 7.9801 44.2583 8.17232L37.6987 14.732C37.5064 14.9243 37.3984 15.185 37.3984 15.4571V20.1879ZM62.2987 7.3125C63.1727 7.3125 63.8836 8.02344 63.8836 8.89748C63.8836 9.77139 63.1727 10.4823 62.2987 10.4823C61.4247 10.4823 60.7138 9.77139 60.7138 8.89748C60.7138 8.02344 61.4247 7.3125 62.2987 7.3125Z" fill="#001081"/>
<path d="M32.7276 7.12318V21.8295C32.7276 22.3959 33.1867 22.8549 33.7529 22.8549C34.3192 22.8549 34.7783 22.3959 34.7783 21.8295V7.12318C36.2851 6.6794 37.3886 5.28445 37.3886 3.63576C37.3886 1.63105 35.7575 0 33.7529 0C31.7482 0 30.1172 1.63105 30.1172 3.63576C30.1172 5.28445 31.2206 6.67926 32.7276 7.12318ZM33.7529 2.05078C34.6269 2.05078 35.3378 2.76172 35.3378 3.63576C35.3378 4.5016 34.6396 5.20652 33.7767 5.21938C33.7688 5.21924 33.761 5.21814 33.7529 5.21814C33.7449 5.21814 33.7371 5.2191 33.7292 5.21938C32.8663 5.20652 32.168 4.5016 32.168 3.63576C32.168 2.76172 32.879 2.05078 33.7529 2.05078Z" fill="#001081"/>
<path d="M25.8572 34.1104C25.8572 32.1057 24.2263 30.4746 22.2216 30.4746C20.2169 30.4746 18.5859 32.1057 18.5859 34.1104C18.5859 36.1151 20.2169 37.7461 22.2216 37.7461C22.8518 37.7461 23.4451 37.5847 23.9624 37.3014L26.4598 39.7988V44.8428C26.4598 45.4092 26.9189 45.8682 27.4852 45.8682C28.0515 45.8682 28.5106 45.4092 28.5106 44.8428V39.374C28.5106 39.1021 28.4026 38.8414 28.2103 38.6489L25.4124 35.8511C25.6959 35.3337 25.8572 34.7406 25.8572 34.1104ZM20.6367 34.1104C20.6367 33.2363 21.3477 32.5254 22.2216 32.5254C23.0955 32.5254 23.8064 33.2363 23.8064 34.1104C23.8064 34.9844 23.0955 35.6954 22.2216 35.6954C21.3477 35.6954 20.6367 34.9844 20.6367 34.1104Z" fill="#001081"/>
</g>
<defs>
<clipPath id="clip0_10578_385183">
<rect width="70" height="70" fill="white"/>
</clipPath>
</defs>
</svg>
