<svg width="28" height="27" viewBox="0 0 28 27" fill="none" xmlns="http://www.w3.org/2000/svg">
<path d="M0.5625 1.93388C0.5625 0.865687 1.45012 0 2.54531 0H25.5797C26.6749 0 27.5625 0.865687 27.5625 1.93388V25.0661C27.5625 26.1343 26.6749 27 25.5797 27H2.54531C1.45012 27 0.5625 26.1343 0.5625 25.0661V1.93388ZM8.90381 22.6024V10.4102H4.85213V22.6024H8.90381ZM6.87881 8.74463C8.29125 8.74463 9.17044 7.80975 9.17044 6.63863C9.14512 5.44219 8.29294 4.53263 6.90581 4.53263C5.51869 4.53263 4.6125 5.44387 4.6125 6.63863C4.6125 7.80975 5.49169 8.74463 6.85181 8.74463H6.87881ZM15.1611 22.6024V15.7933C15.1611 15.4288 15.1881 15.0643 15.2961 14.8044C15.588 14.0771 16.2546 13.3228 17.3751 13.3228C18.8415 13.3228 19.4271 14.4399 19.4271 16.0802V22.6024H23.4788V15.6094C23.4788 11.8631 21.4807 10.1216 18.8145 10.1216C16.6646 10.1216 15.7011 11.3029 15.1611 12.1348V12.177H15.1341L15.1611 12.1348V10.4102H11.1111C11.1617 11.5543 11.1111 22.6024 11.1111 22.6024H15.1611Z" fill="#001081"/>
</svg>
