<svg width="25" height="24" viewBox="0 0 25 24" fill="none" xmlns="http://www.w3.org/2000/svg">
<g clip-path="url(#clip0_12444_86177)">
<path d="M11.5469 12C11.5469 12.2652 11.6522 12.5196 11.8396 12.7071C12.0269 12.8946 12.2811 13 12.5461 13C12.8112 13 13.0653 12.8946 13.2527 12.7071C13.4401 12.5196 13.5454 12.2652 13.5454 12C13.5454 11.7348 13.4401 11.4804 13.2527 11.2929C13.0653 11.1054 12.8112 11 12.5461 11C12.2811 11 12.0269 11.1054 11.8396 11.2929C11.6522 11.4804 11.5469 11.7348 11.5469 12Z" stroke="#001081" stroke-width="1.5" stroke-linecap="round" stroke-linejoin="round"/>
<path d="M11.5469 19C11.5469 19.2652 11.6522 19.5196 11.8396 19.7071C12.0269 19.8946 12.2811 20 12.5461 20C12.8112 20 13.0653 19.8946 13.2527 19.7071C13.4401 19.5196 13.5454 19.2652 13.5454 19C13.5454 18.7348 13.4401 18.4804 13.2527 18.2929C13.0653 18.1054 12.8112 18 12.5461 18C12.2811 18 12.0269 18.1054 11.8396 18.2929C11.6522 18.4804 11.5469 18.7348 11.5469 19Z" stroke="#001081" stroke-width="1.5" stroke-linecap="round" stroke-linejoin="round"/>
<path d="M11.5469 5C11.5469 5.26522 11.6522 5.51957 11.8396 5.70711C12.0269 5.89464 12.2811 6 12.5461 6C12.8112 6 13.0653 5.89464 13.2527 5.70711C13.4401 5.51957 13.5454 5.26522 13.5454 5C13.5454 4.73478 13.4401 4.48043 13.2527 4.29289C13.0653 4.10536 12.8112 4 12.5461 4C12.2811 4 12.0269 4.10536 11.8396 4.29289C11.6522 4.48043 11.5469 4.73478 11.5469 5Z" stroke="black" stroke-width="1.5" stroke-linecap="round" stroke-linejoin="round"/>
</g>
<defs>
<clipPath id="clip0_12444_86177">
<rect width="23.9823" height="24" fill="white" transform="translate(0.554688)"/>
</clipPath>
</defs>
</svg>
