<svg width="9" height="9" viewBox="0 0 9 9" fill="none" xmlns="http://www.w3.org/2000/svg">
<path d="M4.61072 8.65C3.78072 8.65 3.04572 8.48 2.40572 8.14C1.77572 7.79 1.28072 7.315 0.920721 6.715C0.570721 6.105 0.395721 5.405 0.395721 4.615C0.395721 3.995 0.495721 3.43 0.695721 2.92C0.895721 2.41 1.17572 1.97 1.53572 1.6C1.89572 1.22 2.32072 0.93 2.81072 0.73C3.31072 0.52 3.85072 0.414999 4.43072 0.414999C4.96072 0.414999 5.44572 0.514999 5.88572 0.714999C6.33572 0.915 6.72572 1.19 7.05572 1.54C7.38572 1.88 7.63572 2.29 7.80572 2.77C7.98572 3.24 8.07072 3.755 8.06072 4.315L8.04572 4.975H1.65572L1.29572 3.7H6.50072L6.27572 3.955V3.61C6.24572 3.31 6.14572 3.045 5.97572 2.815C5.80572 2.575 5.58572 2.39 5.31572 2.26C5.05572 2.12 4.76572 2.05 4.44572 2.05C3.95572 2.05 3.54072 2.145 3.20072 2.335C2.86072 2.515 2.60072 2.785 2.42072 3.145C2.25072 3.505 2.16572 3.95 2.16572 4.48C2.16572 4.99 2.27072 5.435 2.48072 5.815C2.70072 6.195 3.01072 6.49 3.41072 6.7C3.81072 6.91 4.27572 7.015 4.80572 7.015C5.17572 7.015 5.51572 6.955 5.82572 6.835C6.14572 6.715 6.48572 6.5 6.84572 6.19L7.74572 7.45C7.47572 7.7 7.16572 7.915 6.81572 8.095C6.47572 8.265 6.11572 8.4 5.73572 8.5C5.35572 8.6 4.98072 8.65 4.61072 8.65Z" fill="#4BC181"/>
</svg>
