<svg width="80" height="80" viewBox="0 0 80 80" fill="none" xmlns="http://www.w3.org/2000/svg">
<rect width="80" height="80" rx="40" fill="#1616BC"/>
<path d="M55 24.0625H42.5C40.4321 24.0625 38.75 25.7446 38.75 27.8125V45.3125C38.75 47.3804 40.4321 49.0625 42.5 49.0625H55C57.0679 49.0625 58.75 47.3804 58.75 45.3125V27.8125C58.75 25.7446 57.0679 24.0625 55 24.0625ZM57.5 45.3125C57.5 46.691 56.3788 47.8125 55 47.8125H42.5C41.1212 47.8125 40 46.691 40 45.3125V27.8125C40 26.434 41.1212 25.3125 42.5 25.3125H55C56.3788 25.3125 57.5 26.434 57.5 27.8125V45.3125Z" fill="white"/>
<path d="M23.6455 55.9375H52.6201C56.0846 55.7694 55.6558 50.5616 52.1703 50.9375C52.9865 50.2877 52.1144 49.1821 51.3835 49.9368C50.9117 50.5634 50.164 50.9375 49.3828 50.9375H26.8828C25.504 50.9375 24.3828 49.816 24.3828 48.4375V32.8125C24.3828 31.434 25.504 30.3125 26.8828 30.3125H37.5077C38.3259 30.3043 38.3305 29.0734 37.5077 29.0625H26.8828C24.8149 29.0625 23.1328 30.7446 23.1328 32.8125V48.4375C23.1328 49.3985 23.4991 50.2732 24.0955 50.9375C20.5952 50.5724 20.1844 55.7576 23.6455 55.9375ZM41.0899 52.1875C40.8738 52.5607 40.4698 52.8125 40.0077 52.8125H36.2578C35.7957 52.8125 35.3917 52.5607 35.1756 52.1875H41.0899ZM22.5078 53.3252C22.5078 52.6978 23.018 52.1875 23.6454 52.1875H33.8465C34.126 53.2627 35.0961 54.0625 36.2578 54.0625H40.0077C41.1694 54.0625 42.1395 53.2627 42.419 52.1875H52.6201C53.3481 52.1817 53.8439 52.8512 53.7577 53.5498C53.7577 54.1772 53.2475 54.6875 52.6201 54.6875H23.6455C22.9186 54.6933 22.4207 54.0238 22.5078 53.3252Z" fill="white"/>
<path d="M37.5 34.0625C37.5 32.684 36.3788 31.5625 35 31.5625H28.75C27.3712 31.5625 26.25 32.684 26.25 34.0625V37.1875C26.25 38.566 27.3712 39.6875 28.75 39.6875H35C36.3788 39.6875 37.5 38.566 37.5 37.1875V34.0625ZM36.25 37.1875C36.25 37.8769 35.6891 38.4375 35 38.4375H28.75C28.0609 38.4375 27.5 37.8769 27.5 37.1875V34.0625C27.5 33.3731 28.0609 32.8125 28.75 32.8125H35C35.6891 32.8125 36.25 33.3731 36.25 34.0625V37.1875Z" fill="#1FED93"/>
<path d="M35 40.9375H28.75C27.3712 40.9375 26.25 42.059 26.25 43.4375V47.1875C26.25 48.566 27.3712 49.6875 28.75 49.6875H35C36.3788 49.6875 37.5 48.566 37.5 47.1875V43.4375C37.5 42.059 36.3788 40.9375 35 40.9375ZM36.25 47.1875C36.25 47.8769 35.6891 48.4375 35 48.4375H28.75C28.0609 48.4375 27.5 47.8769 27.5 47.1875V43.4375C27.5 42.7481 28.0609 42.1875 28.75 42.1875H35C35.6891 42.1875 36.25 42.7481 36.25 43.4375V47.1875Z" fill="#1FED93"/>
<path d="M43.75 34.0625H45.625C47.0038 34.0625 48.125 32.941 48.125 31.5625V29.0625C48.125 27.684 47.0038 26.5625 45.625 26.5625H43.75C42.3712 26.5625 41.25 27.684 41.25 29.0625V31.5625C41.25 32.941 42.3712 34.0625 43.75 34.0625ZM42.5 29.0625C42.5 28.3731 43.0609 27.8125 43.75 27.8125H45.625C46.3141 27.8125 46.875 28.3731 46.875 29.0625V31.5625C46.875 32.2519 46.3141 32.8125 45.625 32.8125H43.75C43.0609 32.8125 42.5 32.2519 42.5 31.5625V29.0625Z" fill="white"/>
<path d="M53.75 26.5625H51.875C50.4962 26.5625 49.375 27.684 49.375 29.0625V31.5625C49.375 32.941 50.4962 34.0625 51.875 34.0625H53.75C55.1288 34.0625 56.25 32.941 56.25 31.5625V29.0625C56.25 27.684 55.1288 26.5625 53.75 26.5625ZM55 31.5625C55 32.2519 54.4391 32.8125 53.75 32.8125H51.875C51.1859 32.8125 50.625 32.2519 50.625 31.5625V29.0625C50.625 28.3731 51.1859 27.8125 51.875 27.8125H53.75C54.4391 27.8125 55 28.3731 55 29.0625V31.5625Z" fill="white"/>
<path d="M48.125 40.3125V37.8125C48.125 36.434 47.0038 35.3125 45.625 35.3125H43.75C42.3712 35.3125 41.25 36.434 41.25 37.8125V40.3125C41.25 41.691 42.3712 42.8125 43.75 42.8125H45.625C47.0038 42.8125 48.125 41.691 48.125 40.3125ZM42.5 40.3125V37.8125C42.5 37.1231 43.0609 36.5625 43.75 36.5625H45.625C46.3141 36.5625 46.875 37.1231 46.875 37.8125V40.3125C46.875 41.0019 46.3141 41.5625 45.625 41.5625H43.75C43.0609 41.5625 42.5 41.0019 42.5 40.3125Z" fill="white"/>
<path d="M53.75 35.3125H51.875C50.4962 35.3125 49.375 36.434 49.375 37.8125V40.3125C49.375 41.691 50.4962 42.8125 51.875 42.8125H53.75C55.1288 42.8125 56.25 41.691 56.25 40.3125V37.8125C56.25 36.434 55.1288 35.3125 53.75 35.3125ZM55 40.3125C55 41.0019 54.4391 41.5625 53.75 41.5625H51.875C51.1859 41.5625 50.625 41.0019 50.625 40.3125V37.8125C50.625 37.1231 51.1859 36.5625 51.875 36.5625H53.75C54.4391 36.5625 55 37.1231 55 37.8125V40.3125Z" fill="white"/>
<path d="M53.1316 44.0625H44.3816C43.5627 44.0755 43.5579 45.2985 44.3816 45.3125H53.1316C53.9504 45.2995 53.9552 44.0765 53.1316 44.0625Z" fill="white"/>
</svg>
