<svg width="31" height="30" viewBox="0 0 31 30" fill="none" xmlns="http://www.w3.org/2000/svg">
<g clip-path="url(#clip0_10761_404081)">
<path d="M24.7116 15.7146L15.3366 24.9996L5.96156 15.7146C5.34319 15.1129 4.85611 14.3896 4.53099 13.5904C4.20587 12.7912 4.04976 11.9333 4.07248 11.0708C4.0952 10.2083 4.29626 9.35978 4.663 8.57878C5.02975 7.79778 5.55423 7.10118 6.20342 6.53284C6.8526 5.96449 7.61244 5.53672 8.43507 5.27646C9.2577 5.0162 10.1253 4.92909 10.9833 5.02061C11.8412 5.11213 12.6709 5.38031 13.4202 5.80824C14.1694 6.23618 14.8219 6.81461 15.3366 7.50711C15.8535 6.81964 16.5067 6.24626 17.2554 5.82287C18.0041 5.39947 18.8322 5.13517 19.6877 5.04651C20.5433 4.95785 21.4079 5.04673 22.2275 5.3076C23.0471 5.56847 23.8041 5.9957 24.451 6.56256C25.0979 7.12943 25.6208 7.82372 25.9871 8.60198C26.3533 9.38024 26.555 10.2257 26.5794 11.0855C26.6039 11.9453 26.4506 12.8009 26.1292 13.5987C25.8078 14.3965 25.3252 15.1194 24.7116 15.7221" stroke="#001081" stroke-width="1.5" stroke-linecap="round" stroke-linejoin="round"/>
</g>
<defs>
<clipPath id="clip0_10761_404081">
<rect width="30" height="30" fill="white" transform="translate(0.335938)"/>
</clipPath>
</defs>
</svg>
