<svg width="40" height="40" viewBox="0 0 40 40" fill="none" xmlns="http://www.w3.org/2000/svg">
<g clip-path="url(#clip0_40000003_202)">
<path d="M30.6609 15.3355H36.1145C36.4393 16.2534 37.3776 16.8039 38.3375 16.6393C39.297 16.4747 39.9985 15.6427 39.9985 14.6692C39.9985 13.6953 39.297 12.8633 38.3375 12.6987C37.3776 12.534 36.4393 13.0849 36.1145 14.0028H30.6609V12.6701C30.6593 11.3468 29.8745 10.15 28.6618 9.62065V7.33913H31.3273C31.6953 7.33913 31.9937 7.04076 31.9937 6.67277V3.88464C32.9116 3.55991 33.4624 2.62154 33.2978 1.66168C33.1331 0.702157 32.3012 0.000650748 31.3273 0.000650748C30.3538 0.000650748 29.5218 0.702157 29.3572 1.66168C29.1925 2.62154 29.7431 3.55991 30.6609 3.88464V6.0064H27.9955C27.6275 6.0064 27.3291 6.30477 27.3291 6.67277V9.33823H25.9964V4.0073C25.9925 3.96826 25.9847 3.92954 25.9733 3.8918C26.8993 3.57716 27.4619 2.63846 27.3024 1.67307C27.143 0.708013 26.3084 0 25.33 0C24.3519 0 23.5174 0.708013 23.3576 1.67307C23.1982 2.63846 23.7607 3.57716 24.6871 3.8918C24.6754 3.92954 24.6676 3.96826 24.6637 4.0073V9.33823H20.6655V4.0073C20.6616 3.96826 20.6537 3.92954 20.6424 3.8918C21.5684 3.57716 22.1309 2.63846 21.9715 1.67307C21.8121 0.708013 20.9775 0 19.9991 0C19.021 0 18.1864 0.708013 18.0267 1.67307C17.8672 2.63846 18.4298 3.57716 19.3562 3.8918C19.3444 3.92954 19.3366 3.96826 19.3327 4.0073V9.33823H15.3345V4.0073C15.3306 3.96826 15.3228 3.92954 15.3114 3.8918C16.2375 3.57716 16.8 2.63846 16.6406 1.67307C16.4812 0.708013 15.6466 0 14.6682 0C13.6901 0 12.8555 0.708013 12.6958 1.67307C12.5363 2.63846 13.0989 3.57716 14.0252 3.8918C14.0135 3.92954 14.0057 3.96826 14.0018 4.0073V9.33823H12.6691V6.67277C12.6691 6.30477 12.3707 6.0064 12.0027 6.0064H9.33725V3.88464C10.2551 3.55991 10.806 2.62154 10.6413 1.66168C10.4767 0.702157 9.64473 0.000650748 8.67089 0.000650748C7.69737 0.000650748 6.86539 0.702157 6.70075 1.66168C6.53611 2.62154 7.08664 3.55991 8.00452 3.88464V6.67277C8.00452 7.04076 8.30289 7.33913 8.67089 7.33913H11.3363V9.62065C10.1237 10.15 9.3392 11.3468 9.33725 12.6701V14.0028H3.88366C3.55926 13.0849 2.62056 12.534 1.66103 12.6987C0.701506 12.8633 0 13.6953 0 14.6692C0 15.6427 0.701506 16.4747 1.66103 16.6393C2.62056 16.8039 3.55926 16.2534 3.88366 15.3355H9.33725V19.3337H3.88366C3.55926 18.4158 2.62056 17.865 1.66103 18.0296C0.701506 18.1943 0 19.0262 0 20.0001C0 20.9736 0.701506 21.8056 1.66103 21.9702C2.62056 22.1349 3.55926 21.5843 3.88366 20.6664H9.33725V24.6646H3.88366C3.55926 23.7468 2.62056 23.1959 1.66103 23.3605C0.701506 23.5252 0 24.3572 0 25.331C0 26.3045 0.701506 27.1365 1.66103 27.3011C2.62056 27.4658 3.55926 26.9152 3.88366 25.9974H9.33725V27.3301C9.3392 28.6534 10.1237 29.8501 11.3363 30.3792V32.661H8.67089C8.30289 32.661 8.00452 32.9594 8.00452 33.3274V36.1155C7.08664 36.4399 6.53611 37.3786 6.70075 38.3381C6.86539 39.2977 7.69737 39.9992 8.67089 39.9992C9.64473 39.9992 10.4767 39.2977 10.6413 38.3381C10.806 37.3786 10.2551 36.4399 9.33725 36.1155V33.9938H12.0027C12.3707 33.9938 12.6691 33.6954 12.6691 33.3274V30.6619H14.0018V35.9929C14.0057 36.0319 14.0135 36.0706 14.0252 36.108C13.0989 36.4227 12.5363 37.3617 12.6958 38.3268C12.8555 39.2921 13.6901 40.0002 14.6682 40.0002C15.6466 40.0002 16.4812 39.2921 16.6406 38.3268C16.8 37.3617 16.2375 36.4227 15.3114 36.108C15.3228 36.0706 15.3306 36.0319 15.3345 35.9929V30.6619H19.3327V35.9929C19.3366 36.0319 19.3444 36.0706 19.3562 36.108C18.4298 36.4227 17.8672 37.3617 18.0267 38.3268C18.1864 39.2921 19.021 40.0002 19.9991 40.0002C20.9775 40.0002 21.8121 39.2921 21.9715 38.3268C22.1309 37.3617 21.5684 36.4227 20.6424 36.108C20.6537 36.0706 20.6616 36.0319 20.6655 35.9929V30.6619H24.6637V35.9929C24.6676 36.0319 24.6754 36.0706 24.6871 36.108C23.7607 36.4227 23.1982 37.3617 23.3576 38.3268C23.5174 39.2921 24.3519 40.0002 25.33 40.0002C26.3084 40.0002 27.143 39.2921 27.3024 38.3268C27.4619 37.3617 26.8993 36.4227 25.9733 36.108C25.9847 36.0706 25.9925 36.0319 25.9964 35.9929V30.6619H27.3291V33.3274C27.3291 33.6954 27.6275 33.9938 27.9955 33.9938H30.6609V36.1155C29.7431 36.4399 29.1925 37.3786 29.3572 38.3381C29.5218 39.2977 30.3538 39.9992 31.3273 39.9992C32.3012 39.9992 33.1331 39.2977 33.2978 38.3381C33.4624 37.3786 32.9116 36.4399 31.9937 36.1155V33.3274C31.9937 32.9594 31.6953 32.661 31.3273 32.661H28.6618V30.3792C29.8745 29.8501 30.6593 28.6534 30.6609 27.3301V25.9974H36.1145C36.4393 26.9152 37.3776 27.4658 38.3375 27.3011C39.297 27.1365 39.9985 26.3045 39.9985 25.331C39.9985 24.3572 39.297 23.5252 38.3375 23.3605C37.3776 23.1959 36.4393 23.7468 36.1145 24.6646H30.6609V20.6664H36.1145C36.4393 21.5843 37.3776 22.1349 38.3375 21.9702C39.297 21.8056 39.9985 20.9736 39.9985 20.0001C39.9985 19.0262 39.297 18.1943 38.3375 18.0296C37.3776 17.865 36.4393 18.4158 36.1145 19.3337H30.6609V15.3355ZM37.991 14.0028C38.359 14.0028 38.6573 14.3012 38.6573 14.6692C38.6573 15.0372 38.359 15.3355 37.991 15.3355C37.623 15.3355 37.3246 15.0372 37.3246 14.6692C37.3246 14.3012 37.623 14.0028 37.991 14.0028ZM31.3273 1.34184C31.6953 1.34184 31.9937 1.64021 31.9937 2.00821C31.9937 2.3762 31.6953 2.67457 31.3273 2.67457C30.9593 2.67457 30.6609 2.3762 30.6609 2.00821C30.6609 1.64021 30.9593 1.34184 31.3273 1.34184ZM25.33 1.34184C25.698 1.34184 25.9964 1.64021 25.9964 2.00821C25.9964 2.3762 25.698 2.67457 25.33 2.67457C24.962 2.67457 24.6637 2.3762 24.6637 2.00821C24.6637 1.64021 24.962 1.34184 25.33 1.34184ZM19.9991 1.34184C20.3671 1.34184 20.6655 1.64021 20.6655 2.00821C20.6655 2.3762 20.3671 2.67457 19.9991 2.67457C19.6311 2.67457 19.3327 2.3762 19.3327 2.00821C19.3327 1.64021 19.6311 1.34184 19.9991 1.34184ZM14.6682 1.34184C15.0362 1.34184 15.3345 1.64021 15.3345 2.00821C15.3345 2.3762 15.0362 2.67457 14.6682 2.67457C14.3002 2.67457 14.0018 2.3762 14.0018 2.00821C14.0018 1.64021 14.3002 1.34184 14.6682 1.34184ZM8.67089 1.34184C9.03888 1.34184 9.33725 1.64021 9.33725 2.00821C9.33725 2.3762 9.03888 2.67457 8.67089 2.67457C8.30289 2.67457 8.00452 2.3762 8.00452 2.00821C8.00452 1.64021 8.30289 1.34184 8.67089 1.34184ZM2.00723 15.3355C1.63923 15.3355 1.34087 15.0372 1.34087 14.6692C1.34087 14.3012 1.63923 14.0028 2.00723 14.0028C2.37523 14.0028 2.6736 14.3012 2.6736 14.6692C2.6736 15.0372 2.37523 15.3355 2.00723 15.3355ZM2.00723 20.6664C1.63923 20.6664 1.34087 20.3681 1.34087 20.0001C1.34087 19.6321 1.63923 19.3337 2.00723 19.3337C2.37523 19.3337 2.6736 19.6321 2.6736 20.0001C2.6736 20.3681 2.37523 20.6664 2.00723 20.6664ZM2.00723 25.9974C1.63923 25.9974 1.34087 25.699 1.34087 25.331C1.34087 24.963 1.63923 24.6646 2.00723 24.6646C2.37523 24.6646 2.6736 24.963 2.6736 25.331C2.6736 25.699 2.37523 25.9974 2.00723 25.9974ZM8.67089 38.6583C8.30289 38.6583 8.00452 38.3599 8.00452 37.9919C8.00452 37.624 8.30289 37.3256 8.67089 37.3256C9.03888 37.3256 9.33725 37.624 9.33725 37.9919C9.33725 38.3599 9.03888 38.6583 8.67089 38.6583ZM14.6682 38.6583C14.3002 38.6583 14.0018 38.3599 14.0018 37.9919C14.0018 37.624 14.3002 37.3256 14.6682 37.3256C15.0362 37.3256 15.3345 37.624 15.3345 37.9919C15.3345 38.3599 15.0362 38.6583 14.6682 38.6583ZM19.9991 38.6583C19.6311 38.6583 19.3327 38.3599 19.3327 37.9919C19.3327 37.624 19.6311 37.3256 19.9991 37.3256C20.3671 37.3256 20.6655 37.624 20.6655 37.9919C20.6655 38.3599 20.3671 38.6583 19.9991 38.6583ZM25.33 38.6583C24.962 38.6583 24.6637 38.3599 24.6637 37.9919C24.6637 37.624 24.962 37.3256 25.33 37.3256C25.698 37.3256 25.9964 37.624 25.9964 37.9919C25.9964 38.3599 25.698 38.6583 25.33 38.6583ZM31.3273 38.6583C30.9593 38.6583 30.6609 38.3599 30.6609 37.9919C30.6609 37.624 30.9593 37.3256 31.3273 37.3256C31.6953 37.3256 31.9937 37.624 31.9937 37.9919C31.9937 38.3599 31.6953 38.6583 31.3273 38.6583ZM37.991 24.6646C38.359 24.6646 38.6573 24.963 38.6573 25.331C38.6573 25.699 38.359 25.9974 37.991 25.9974C37.623 25.9974 37.3246 25.699 37.3246 25.331C37.3246 24.963 37.623 24.6646 37.991 24.6646ZM37.991 19.3337C38.359 19.3337 38.6573 19.6321 38.6573 20.0001C38.6573 20.3681 38.359 20.6664 37.991 20.6664C37.623 20.6664 37.3246 20.3681 37.3246 20.0001C37.3246 19.6321 37.623 19.3337 37.991 19.3337ZM29.3282 27.3301C29.3282 28.4341 28.4331 29.3292 27.3291 29.3292H12.6691C11.5651 29.3292 10.67 28.4341 10.67 27.3301V12.6701C10.67 11.5661 11.5651 10.671 12.6691 10.671H27.3291C28.4331 10.671 29.3282 11.5661 29.3282 12.6701V27.3301Z" fill="white"/>
<path d="M26.0125 13.3359H14.0179C13.6499 13.3359 13.3516 13.6343 13.3516 14.0023V25.9969C13.3516 26.3649 13.6499 26.6632 14.0179 26.6632H26.0125C26.3805 26.6632 26.6789 26.3649 26.6789 25.9969V14.0023C26.6789 13.6343 26.3805 13.3359 26.0125 13.3359ZM25.3461 25.3305H14.6843V14.6687H25.3461V25.3305Z" fill="white"/>
<path d="M22.6857 23.332C22.6857 23.7 22.984 23.9983 23.3521 23.9983C23.7201 23.9983 24.0184 23.7 24.0184 23.332V18.2363C24.0184 17.0023 23.0181 16.002 21.784 16.002H19.3539C18.9858 16.002 18.6875 16.3003 18.6875 16.6683C18.6875 17.0363 18.9858 17.3347 19.3539 17.3347H20.6866C21.7907 17.3347 22.6857 18.2297 22.6857 19.3338V23.332Z" fill="#1FED93"/>
<path d="M21.3465 23.332C21.3465 22.964 21.0482 22.6656 20.6802 22.6656H19.3475C18.2434 22.6656 17.3484 21.7706 17.3484 20.6665V16.6683C17.3484 16.3003 17.05 16.002 16.682 16.002C16.314 16.002 16.0156 16.3003 16.0156 16.6683V21.764C16.0156 22.998 17.016 23.9983 18.25 23.9983H20.6802C21.0482 23.9983 21.3465 23.7 21.3465 23.332Z" fill="#1FED93"/>
</g>
<defs>
<clipPath id="clip0_40000003_202">
<rect width="39.9985" height="40.0002" fill="white"/>
</clipPath>
</defs>
</svg>
