<svg width="40" height="34" viewBox="0 0 40 34" fill="none" xmlns="http://www.w3.org/2000/svg">
<path d="M3.92188 17.6373H15.9531C16.3467 17.6368 16.724 17.4803 17.0022 17.202C17.2805 16.9237 17.4371 16.5464 17.4375 16.1529V14.5965C17.4382 13.8339 17.1985 13.0905 16.7526 12.4718C16.3066 11.8532 15.6771 11.3909 14.9534 11.1504L12.3317 10.2767C13.0687 9.76647 13.6233 9.03411 13.9148 8.18645C14.2063 7.33879 14.2194 6.42018 13.9521 5.56458C13.6848 4.70898 13.1512 3.96115 12.429 3.43016C11.7068 2.89917 10.8339 2.61279 9.9375 2.61279C9.04112 2.61279 8.16819 2.89917 7.44601 3.43016C6.72384 3.96115 6.19019 4.70898 5.92291 5.56458C5.65562 6.42018 5.66868 7.33879 5.96017 8.18645C6.25166 9.03411 6.80634 9.76647 7.54332 10.2767L4.92163 11.1504C4.19792 11.3909 3.56837 11.8532 3.12242 12.4718C2.67648 13.0905 2.43682 13.8339 2.4375 14.5965V16.1529C2.43794 16.5464 2.59448 16.9237 2.87275 17.202C3.15103 17.4803 3.52833 17.6368 3.92188 17.6373ZM6.98157 6.82367C6.98145 6.23902 7.15471 5.66746 7.47944 5.18128C7.80416 4.6951 8.26578 4.31613 8.80589 4.09231C9.34601 3.86849 9.94036 3.80987 10.5138 3.92385C11.0872 4.03784 11.614 4.31931 12.0274 4.73268C12.4409 5.14605 12.7225 5.67275 12.8366 6.24616C12.9507 6.81957 12.8922 7.41394 12.6685 7.95411C12.4448 8.49427 12.0659 8.95596 11.5798 9.28079C11.0937 9.60561 10.5222 9.77899 9.9375 9.77899C9.15395 9.77802 8.40275 9.46636 7.84864 8.91236C7.29452 8.35836 6.98271 7.60723 6.98157 6.82367ZM3.6875 14.5965C3.68714 14.0962 3.84439 13.6086 4.13692 13.2027C4.42946 12.7969 4.84241 12.4936 5.31714 12.3357L8.57339 11.2505C9.45922 10.9576 10.4158 10.9576 11.3017 11.2505L14.5579 12.3357C15.0326 12.4936 15.4456 12.7969 15.7381 13.2027C16.0306 13.6086 16.1879 14.0962 16.1875 14.5965V16.1529C16.1875 16.215 16.1628 16.2746 16.1188 16.3186C16.0749 16.3625 16.0153 16.3872 15.9531 16.3873H3.92188C3.85972 16.3872 3.80012 16.3625 3.75617 16.3186C3.71222 16.2746 3.68752 16.215 3.6875 16.1529V14.5965Z" fill="white"/>
<path d="M21.5713 15.7664H31.3125C32.9701 15.7664 34.5598 15.1079 35.7319 13.9358C36.904 12.7637 37.5625 11.174 37.5625 9.51636C37.5625 7.85875 36.904 6.26904 35.7319 5.09694C34.5598 3.92484 32.9701 3.26636 31.3125 3.26636H20.0625C19.8967 3.26636 19.7378 3.33221 19.6206 3.44942C19.5033 3.56663 19.4375 3.7256 19.4375 3.89136C19.4375 4.05712 19.5033 4.21609 19.6206 4.3333C19.7378 4.45051 19.8967 4.51636 20.0625 4.51636H31.3125C32.6386 4.51636 33.9104 5.04314 34.848 5.98082C35.7857 6.91851 36.3125 8.19028 36.3125 9.51636C36.3125 10.8424 35.7857 12.1142 34.848 13.0519C33.9104 13.9896 32.6386 14.5164 31.3125 14.5164H21.4794L22.2359 13.6875C22.2918 13.627 22.3351 13.5561 22.3635 13.4788C22.3918 13.4014 22.4046 13.3193 22.4011 13.237C22.3976 13.1548 22.3778 13.074 22.343 12.9994C22.3082 12.9248 22.2589 12.8578 22.1981 12.8023C22.1373 12.7468 22.0661 12.7038 21.9886 12.6759C21.9112 12.648 21.8289 12.6357 21.7467 12.6397C21.6644 12.6437 21.5838 12.6639 21.5094 12.6992C21.435 12.7345 21.3683 12.7841 21.3131 12.8452L19.6011 14.7202C19.4927 14.8389 19.4342 14.9949 19.4378 15.1556C19.4415 15.3164 19.5069 15.4695 19.6206 15.5832L21.4956 17.4582C21.6132 17.5737 21.7716 17.638 21.9363 17.6373C22.1011 17.6365 22.2589 17.5708 22.3754 17.4543C22.4919 17.3377 22.5577 17.1799 22.5584 17.0152C22.5592 16.8504 22.4948 16.692 22.3794 16.5745L21.5713 15.7664Z" fill="white"/>
<path d="M18.6869 26.5884C18.5752 26.466 18.4194 26.393 18.2539 26.3855C18.0884 26.3779 17.9267 26.4364 17.8043 26.5481C17.6819 26.6598 17.6089 26.8155 17.6014 26.981C17.5938 27.1466 17.6523 27.3083 17.764 27.4307L18.5206 28.2595H7.75C6.67256 28.2595 5.63925 27.8315 4.87738 27.0696C4.11551 26.3078 3.6875 25.2745 3.6875 24.197C3.6875 23.1196 4.11551 22.0863 4.87738 21.3244C5.63925 20.5625 6.67256 20.1345 7.75 20.1345H17.4375C17.6033 20.1345 17.7622 20.0687 17.8794 19.9515C17.9967 19.8343 18.0625 19.6753 18.0625 19.5095C18.0625 19.3438 17.9967 19.1848 17.8794 19.0676C17.7622 18.9504 17.6033 18.8845 17.4375 18.8845H7.75C6.34104 18.8845 4.98978 19.4442 3.9935 20.4405C2.99721 21.4368 2.4375 22.7881 2.4375 24.197C2.4375 25.606 2.99721 26.9572 3.9935 27.9535C4.98978 28.9498 6.34104 29.5095 7.75 29.5095H18.4287L17.6206 30.3176C17.562 30.3755 17.5154 30.4445 17.4835 30.5204C17.4516 30.5964 17.435 30.6779 17.4348 30.7603C17.4345 30.8427 17.4506 30.9244 17.482 31.0006C17.5134 31.0767 17.5596 31.1459 17.6178 31.2042C17.6761 31.2625 17.7453 31.3086 17.8215 31.34C17.8976 31.3715 17.9793 31.3875 18.0617 31.3872C18.1441 31.387 18.2256 31.3704 18.3016 31.3385C18.3776 31.3066 18.4465 31.26 18.5044 31.2014L20.3794 29.3264C20.4931 29.2127 20.5585 29.0595 20.5622 28.8988C20.5658 28.738 20.5073 28.5821 20.3989 28.4634L18.6869 26.5884Z" fill="white"/>
<path d="M29.4375 17.6372C28.0778 17.6372 26.7485 18.0404 25.618 18.7959C24.4874 19.5513 23.6062 20.625 23.0858 21.8813C22.5655 23.1375 22.4293 24.5198 22.6946 25.8535C22.9599 27.1871 23.6147 28.4121 24.5761 29.3736C25.5376 30.3351 26.7626 30.9898 28.0963 31.2551C29.4299 31.5204 30.8122 31.3842 32.0685 30.8639C33.3247 30.3435 34.3984 29.4623 35.1539 28.3318C35.9093 27.2012 36.3125 25.872 36.3125 24.5122C36.3104 22.6895 35.5855 20.942 34.2966 19.6531C33.0077 18.3643 31.2602 17.6393 29.4375 17.6372ZM29.4375 30.1372C28.325 30.1372 27.2374 29.8073 26.3124 29.1892C25.3874 28.5711 24.6664 27.6926 24.2407 26.6648C23.8149 25.637 23.7035 24.506 23.9206 23.4148C24.1376 22.3237 24.6734 21.3214 25.46 20.5347C26.2467 19.7481 27.249 19.2123 28.3401 18.9953C29.4313 18.7782 30.5623 18.8896 31.5901 19.3154C32.6179 19.7411 33.4964 20.4621 34.1145 21.3871C34.7326 22.3122 35.0625 23.3997 35.0625 24.5122C35.0609 26.0036 34.4677 27.4333 33.4132 28.4879C32.3586 29.5424 30.9288 30.1356 29.4375 30.1372Z" fill="#1FED93"/>
<path d="M33.4291 14.964L30.1209 16.6411L28.6878 15.9145C28.5703 15.856 28.4119 15.8234 28.2471 15.8237C28.0823 15.8241 27.9245 15.8575 27.808 15.9165C27.6915 15.9756 27.6258 16.0556 27.625 16.1391C27.6243 16.2227 27.6886 16.303 27.8041 16.3625L29.6791 17.3131C29.7371 17.3425 29.806 17.3659 29.8818 17.3818C29.9576 17.3977 30.0389 17.4059 30.1209 17.4059C30.203 17.4059 30.2843 17.3977 30.3601 17.3818C30.4359 17.3659 30.5048 17.3425 30.5628 17.3131L34.3128 15.412C34.4288 15.3524 34.4936 15.2721 34.4931 15.1884C34.4926 15.1047 34.4268 15.0245 34.3101 14.9653C34.1933 14.9062 34.0352 14.8728 33.8701 14.8726C33.7051 14.8723 33.5465 14.9052 33.4291 14.964Z" fill="#1FED93"/>
</svg>
