<svg width="38" height="38" viewBox="0 0 38 38" fill="none" xmlns="http://www.w3.org/2000/svg">
<path d="M37.0588 36.5919H35.2941V24.239C35.2941 23.886 35.0588 23.6507 34.7059 23.6507H31.1176C30.7647 23.6507 30.5294 23.886 30.5294 24.239V36.5919H28.2353V20.5919C28.2353 20.239 28 20.0037 27.6471 20.0037H24.1176C23.7647 20.0037 23.5294 20.239 23.5294 20.5919V30.7684C23.5294 31.1213 23.7647 31.3566 24.1176 31.3566C24.4706 31.3566 24.7059 31.1213 24.7059 30.7684V21.1801H27.0588V36.5919H24.7059V33.8272C24.7059 33.4743 24.4706 33.239 24.1176 33.239C23.7647 33.239 23.5294 33.4743 23.5294 33.8272V36.5919H21.1765V29.0037C21.1765 28.6507 20.9412 28.4154 20.5882 28.4154H17.0588C16.7059 28.4154 16.4706 28.6507 16.4706 29.0037V36.5919H14.1176V28.1213C14.1176 27.7684 13.8824 27.5331 13.5294 27.5331H10C9.64706 27.5331 9.41177 27.7684 9.41177 28.1213V36.5919H7.11765V32.6507C7.11765 32.2978 6.88235 32.0625 6.52941 32.0625H2.94118C2.58824 32.0625 2.35294 32.2978 2.35294 32.6507V36.5919H0.588235C0.235294 36.5919 0 36.8272 0 37.1801C0 37.5331 0.235294 37.7684 0.588235 37.7684H37.0588C37.4118 37.7684 37.6471 37.5331 37.6471 37.1801C37.6471 36.8272 37.4118 36.5919 37.0588 36.5919ZM3.52941 36.5919V33.239H5.94118V36.5919H3.52941ZM10.5882 36.5919V28.7095H12.9412V36.5919H10.5882ZM17.6471 36.5919V29.5919H20V36.5919H17.6471ZM31.7059 36.5919V24.8272H34.1176V36.5919H31.7059Z" fill="white"/>
<path d="M4.7045 25.886C3.41039 25.886 2.35156 26.9448 2.35156 28.2389C2.35156 29.533 3.41039 30.5918 4.7045 30.5918C5.99862 30.5918 7.05745 29.533 7.05745 28.2389C7.05745 27.8271 6.9398 27.4154 6.7045 27.0624L10.2339 23.4742C10.6457 23.8271 11.1751 24.0036 11.7045 24.0036C12.7633 24.0036 13.5869 23.2977 13.9398 22.4154L16.4692 22.886C16.5869 24.0624 17.5869 25.0624 18.7633 25.0624C20.0574 25.0624 21.1163 24.0036 21.1163 22.7095C21.1163 22.1213 20.881 21.6507 20.5869 21.2389L24.9986 15.2389C25.2927 15.3565 25.528 15.4154 25.881 15.4154C26.4692 15.4154 27.0574 15.1801 27.4692 14.8271L30.7633 17.0036C30.6457 17.2389 30.5869 17.533 30.5869 17.8271C30.5869 19.1213 31.6457 20.1801 32.9398 20.1801C34.2339 20.1801 35.2927 19.1213 35.2927 17.8271C35.2927 16.533 34.2339 15.4742 32.9398 15.4742C32.3516 15.4742 31.8222 15.7095 31.4104 16.0624L28.0574 13.886C28.1163 13.6507 28.1751 13.4154 28.1751 13.1213C28.1751 11.8271 27.1163 10.7683 25.8222 10.7683C24.528 10.7683 23.4692 11.8271 23.4692 13.1213C23.4692 13.7095 23.7045 14.1801 23.9986 14.5918L19.5869 20.5918C19.2927 20.4742 19.0574 20.4154 18.7045 20.4154C17.7633 20.4154 16.9398 21.0036 16.5869 21.7683L13.9398 21.2977C13.7045 20.2389 12.7633 19.4154 11.6457 19.4154C10.3516 19.4154 9.29274 20.4742 9.29274 21.7683C9.29274 22.0624 9.35156 22.2977 9.46921 22.5918L5.88097 26.2389C5.52803 26.0624 5.17509 25.886 4.7045 25.886ZM4.7045 29.4154C4.05744 29.4154 3.52803 28.886 3.52803 28.2389C3.52803 27.5918 4.05744 27.0624 4.7045 27.0624C5.35156 27.0624 5.88097 27.5918 5.88097 28.2389C5.88097 28.886 5.35156 29.4154 4.7045 29.4154ZM32.9398 16.5918C33.5869 16.5918 34.1163 17.1213 34.1163 17.7683C34.1163 18.4154 33.5869 18.9448 32.9398 18.9448C32.2927 18.9448 31.7633 18.4154 31.7633 17.7683C31.7633 17.1213 32.2927 16.5918 32.9398 16.5918ZM25.881 11.886C26.528 11.886 27.0574 12.4154 27.0574 13.0624C27.0574 13.7095 26.528 14.2389 25.881 14.2389C25.2339 14.2389 24.7045 13.7095 24.7045 13.0624C24.7045 12.4154 25.2339 11.886 25.881 11.886ZM18.8222 21.5918C19.4104 21.5918 19.9986 22.1213 19.9986 22.7683C19.9986 23.4154 19.4692 23.9448 18.8222 23.9448C18.1751 23.9448 17.6457 23.4154 17.6457 22.7683C17.6457 22.1213 18.1751 21.5918 18.8222 21.5918ZM11.7633 20.533C12.4104 20.533 12.9398 21.0624 12.9398 21.7095C12.9398 22.3565 12.4104 22.886 11.7633 22.886C11.1163 22.886 10.5869 22.3565 10.5869 21.7095C10.5869 21.0624 11.1163 20.533 11.7633 20.533Z" fill="#1FED93"/>
<path d="M7.52941 0.238978C3.17647 0.94486 0 4.70957 0 9.12133C0 13.5331 3.17647 17.239 7.52941 17.9449C7.88235 18.0037 8.23529 17.7096 8.23529 17.3566V14.1213C8.23529 13.8272 8.05882 13.6507 7.82353 13.5331C5.82353 13.0037 4.41177 11.1802 4.41177 9.06251C4.41177 6.94486 5.82353 5.12133 7.82353 4.59192C8.05882 4.5331 8.23529 4.2978 8.23529 4.06251V0.827213C8.23529 0.474272 7.88235 0.180154 7.52941 0.238978ZM7.05882 3.59192C4.76471 4.41545 3.17647 6.59192 3.17647 9.06251C3.17647 11.5331 4.76471 13.7096 7.05882 14.5331V16.6507C3.58824 15.7684 1.17647 12.7096 1.17647 9.12133C1.17647 5.5331 3.58824 2.41545 7.05882 1.5331V3.59192Z" fill="white"/>
<path d="M9.76562 17.4156C9.76562 17.7686 10.1186 18.0627 10.4715 18.0039C14.295 17.3568 17.2362 14.4156 17.8833 10.5921C17.9421 10.2392 17.648 9.88623 17.295 9.88623H14.0597C13.7656 9.88623 13.5892 10.0627 13.4715 10.298C13.0597 11.8862 11.8244 13.1215 10.2362 13.5333C10.0009 13.5921 9.82445 13.8274 9.82445 14.1215V17.4156H9.76562ZM10.9421 14.5921C12.5892 14.0039 13.8244 12.7098 14.4127 11.1215H16.5303C15.8244 13.8862 13.7068 16.0039 10.9421 16.7098V14.5921Z" fill="white"/>
<path d="M10.2362 4.59192C11.8244 5.00368 13.0597 6.2978 13.4715 7.82721C13.5303 8.06251 13.7656 8.23898 14.0597 8.23898H17.295C17.648 8.23898 17.9421 7.88604 17.8833 7.53309C17.2362 3.82721 14.295 0.886037 10.4715 0.238978C10.1186 0.180154 9.76562 0.474272 9.76562 0.827213V4.06251C9.76562 4.2978 9.9421 4.53309 10.2362 4.59192ZM10.9421 1.5331C13.7068 2.23898 15.8244 4.35662 16.5303 7.12133H14.4127C13.8244 5.47427 12.5303 4.18015 10.9421 3.59192V1.5331Z" fill="white"/>
<path d="M35.4072 2.5334C35.7601 2.5334 35.9954 2.29811 35.9954 1.94517C35.9954 1.59223 35.7601 1.35693 35.4072 1.35693H30.7601C30.4072 1.35693 30.1719 1.59223 30.1719 1.94517C30.1719 2.29811 30.4072 2.5334 30.7601 2.5334H35.4072Z" fill="white"/>
<path d="M28.3511 1.35693H23.057C22.704 1.35693 22.4688 1.59223 22.4688 1.94517C22.4688 2.29811 22.704 2.5334 23.057 2.5334H28.3511C28.704 2.5334 28.9393 2.29811 28.9393 1.94517C28.9393 1.59223 28.704 1.35693 28.3511 1.35693Z" fill="white"/>
<path d="M23.057 5.592H25.057C25.4099 5.592 25.6452 5.3567 25.6452 5.00376C25.6452 4.65082 25.4099 4.41553 25.057 4.41553H23.057C22.704 4.41553 22.4688 4.65082 22.4688 5.00376C22.4688 5.3567 22.7629 5.592 23.057 5.592Z" fill="white"/>
<path d="M35.9963 8.06236C35.9963 7.70942 35.761 7.47412 35.4081 7.47412H32.5257C32.1728 7.47412 31.9375 7.70942 31.9375 8.06236C31.9375 8.4153 32.1728 8.65059 32.5257 8.65059H35.4081C35.7022 8.65059 35.9963 8.35647 35.9963 8.06236Z" fill="white"/>
<path d="M23.057 7.47412C22.704 7.47412 22.4688 7.70942 22.4688 8.06236C22.4688 8.4153 22.704 8.65059 23.057 8.65059H30.704C31.057 8.65059 31.2923 8.4153 31.2923 8.06236C31.2923 7.70942 31.057 7.47412 30.704 7.47412H23.057Z" fill="white"/>
<path d="M26.5859 5.00376C26.5859 5.3567 26.8212 5.592 27.1742 5.592H35.4095C35.7624 5.592 35.9977 5.3567 35.9977 5.00376C35.9977 4.65082 35.7624 4.41553 35.4095 4.41553H27.1742C26.8801 4.41553 26.5859 4.65082 26.5859 5.00376Z" fill="white"/>
</svg>
