<svg width="43" height="43" viewBox="0 0 43 43" fill="none" xmlns="http://www.w3.org/2000/svg">
<g clip-path="url(#clip0_10532_24137)">
<path fill-rule="evenodd" clip-rule="evenodd" d="M21.5 43C33.3741 43 43 33.3741 43 21.5C43 9.62588 33.3741 0 21.5 0C9.62588 0 0 9.62588 0 21.5C0 33.3741 9.62588 43 21.5 43ZM15.4238 30.5609V12.4375H22.9584C23.9939 12.4375 24.9296 12.6881 25.7677 13.1881C26.6048 13.6892 27.27 14.371 27.7611 15.2336C28.2534 16.0972 28.4984 17.0629 28.4984 18.1339C28.4984 19.2048 28.2523 20.1749 27.7611 21.0463C27.2689 21.9177 26.6048 22.6129 25.7677 23.1306C24.9307 23.6484 23.9939 23.9078 22.9584 23.9078H18.7643V30.5609H15.4238ZM18.7643 20.8257H22.7255C23.1745 20.8257 23.5759 20.7049 23.9296 20.4632C24.2832 20.2215 24.5681 19.8977 24.7843 19.492C25.0005 19.0862 25.1081 18.6416 25.1081 18.1582C25.1081 17.6749 25.0005 17.2092 24.7843 16.8123C24.5681 16.4154 24.2832 16.105 23.9296 15.8799C23.5759 15.656 23.1745 15.5429 22.7255 15.5429H18.7643V20.8246V20.8257ZM26.1313 24.2263C26.1636 24.2008 26.1959 24.1754 26.2285 24.1504L29.4159 30.5596L25.4546 30.5341L22.877 25.003C23.8847 24.9908 24.8703 24.9475 25.7407 24.4952C25.8831 24.4222 26.0074 24.3241 26.1313 24.2263Z" fill="white"/>
</g>
<defs>
<clipPath id="clip0_10532_24137">
<rect width="43" height="43" fill="white"/>
</clipPath>
</defs>
</svg>
