<svg width="25" height="28" viewBox="0 0 25 28" fill="none" xmlns="http://www.w3.org/2000/svg">
<g clip-path="url(#clip0_10662_410364)">
<path d="M22.7891 1.75H1.78359C0.821094 1.75 0.0390625 2.54297 0.0390625 3.51641V24.4836C0.0390625 25.457 0.821094 26.25 1.78359 26.25H22.7891C23.7516 26.25 24.5391 25.457 24.5391 24.4836V3.51641C24.5391 2.54297 23.7516 1.75 22.7891 1.75ZM7.44375 22.75H3.8125V11.0578H7.44922V22.75H7.44375ZM5.62812 9.46094C4.46328 9.46094 3.52266 8.51484 3.52266 7.35547C3.52266 6.19609 4.46328 5.25 5.62812 5.25C6.7875 5.25 7.73359 6.19609 7.73359 7.35547C7.73359 8.52031 6.79297 9.46094 5.62812 9.46094ZM21.0555 22.75H17.4242V17.0625C17.4242 15.7063 17.3969 13.9617 15.5375 13.9617C13.6453 13.9617 13.3555 15.4383 13.3555 16.9641V22.75H9.72422V11.0578H13.2078V12.6547H13.257C13.7437 11.7359 14.9305 10.768 16.6969 10.768C20.3719 10.768 21.0555 13.1906 21.0555 16.3406V22.75Z" fill="white"/>
</g>
<defs>
<clipPath id="clip0_10662_410364">
<rect width="24.5" height="28" fill="white" transform="translate(0.0390625)"/>
</clipPath>
</defs>
</svg>
