<svg width="25" height="24" viewBox="0 0 25 24" fill="none" xmlns="http://www.w3.org/2000/svg">
<g clip-path="url(#clip0_12005_46253)">
<path d="M3.55469 10C3.55469 10.9193 3.73561 11.8295 4.08714 12.6788C4.43866 13.5281 4.95389 14.2997 5.60342 14.9497C6.25295 15.5998 7.02406 16.1154 7.87271 16.4672C8.72136 16.8189 9.63094 17 10.5495 17C11.4681 17 12.3777 16.8189 13.2263 16.4672C14.075 16.1154 14.8461 15.5998 15.4956 14.9497C16.1451 14.2997 16.6604 13.5281 17.0119 12.6788C17.3634 11.8295 17.5443 10.9193 17.5443 10C17.5443 9.08075 17.3634 8.1705 17.0119 7.32122C16.6604 6.47194 16.1451 5.70026 15.4956 5.05025C14.8461 4.40024 14.075 3.88463 13.2263 3.53284C12.3777 3.18106 11.4681 3 10.5495 3C9.63094 3 8.72136 3.18106 7.87271 3.53284C7.02406 3.88463 6.25295 4.40024 5.60342 5.05025C4.95389 5.70026 4.43866 6.47194 4.08714 7.32122C3.73561 8.1705 3.55469 9.08075 3.55469 10Z" stroke="#001081" stroke-width="1.5" stroke-linecap="round" stroke-linejoin="round"/>
<path d="M21.5424 21L15.5469 15" stroke="#001081" stroke-width="1.5" stroke-linecap="round" stroke-linejoin="round"/>
</g>
<defs>
<clipPath id="clip0_12005_46253">
<rect width="23.9822" height="24" fill="white" transform="translate(0.554688)"/>
</clipPath>
</defs>
</svg>
