<svg width="80" height="80" viewBox="0 0 80 80" fill="none" xmlns="http://www.w3.org/2000/svg">
<rect width="80" height="80" rx="40" fill="#1616BC"/>
<g clip-path="url(#clip0_10293_383918)">
<path d="M50.6609 35.3355H56.1145C56.4393 36.2534 57.3776 36.8039 58.3375 36.6393C59.297 36.4747 59.9985 35.6427 59.9985 34.6692C59.9985 33.6953 59.297 32.8633 58.3375 32.6987C57.3776 32.534 56.4393 33.0849 56.1145 34.0028H50.6609V32.6701C50.6593 31.3468 49.8745 30.15 48.6618 29.6207V27.3391H51.3273C51.6953 27.3391 51.9937 27.0408 51.9937 26.6728V23.8846C52.9116 23.5599 53.4624 22.6215 53.2978 21.6617C53.1331 20.7022 52.3012 20.0007 51.3273 20.0007C50.3538 20.0007 49.5218 20.7022 49.3572 21.6617C49.1925 22.6215 49.7431 23.5599 50.6609 23.8846V26.0064H47.9955C47.6275 26.0064 47.3291 26.3048 47.3291 26.6728V29.3382H45.9964V24.0073C45.9925 23.9683 45.9847 23.9295 45.9733 23.8918C46.8993 23.5772 47.4619 22.6385 47.3024 21.6731C47.143 20.708 46.3084 20 45.33 20C44.3519 20 43.5174 20.708 43.3576 21.6731C43.1982 22.6385 43.7607 23.5772 44.6871 23.8918C44.6754 23.9295 44.6676 23.9683 44.6637 24.0073V29.3382H40.6655V24.0073C40.6616 23.9683 40.6537 23.9295 40.6424 23.8918C41.5684 23.5772 42.1309 22.6385 41.9715 21.6731C41.8121 20.708 40.9775 20 39.9991 20C39.021 20 38.1864 20.708 38.0267 21.6731C37.8672 22.6385 38.4298 23.5772 39.3562 23.8918C39.3444 23.9295 39.3366 23.9683 39.3327 24.0073V29.3382H35.3345V24.0073C35.3306 23.9683 35.3228 23.9295 35.3114 23.8918C36.2375 23.5772 36.8 22.6385 36.6406 21.6731C36.4812 20.708 35.6466 20 34.6682 20C33.6901 20 32.8555 20.708 32.6958 21.6731C32.5363 22.6385 33.0989 23.5772 34.0252 23.8918C34.0135 23.9295 34.0057 23.9683 34.0018 24.0073V29.3382H32.6691V26.6728C32.6691 26.3048 32.3707 26.0064 32.0027 26.0064H29.3373V23.8846C30.2551 23.5599 30.806 22.6215 30.6413 21.6617C30.4767 20.7022 29.6447 20.0007 28.6709 20.0007C27.6974 20.0007 26.8654 20.7022 26.7007 21.6617C26.5361 22.6215 27.0866 23.5599 28.0045 23.8846V26.6728C28.0045 27.0408 28.3029 27.3391 28.6709 27.3391H31.3363V29.6207C30.1237 30.15 29.3392 31.3468 29.3373 32.6701V34.0028H23.8837C23.5593 33.0849 22.6206 32.534 21.661 32.6987C20.7015 32.8633 20 33.6953 20 34.6692C20 35.6427 20.7015 36.4747 21.661 36.6393C22.6206 36.8039 23.5593 36.2534 23.8837 35.3355H29.3373V39.3337H23.8837C23.5593 38.4158 22.6206 37.865 21.661 38.0296C20.7015 38.1943 20 39.0262 20 40.0001C20 40.9736 20.7015 41.8056 21.661 41.9702C22.6206 42.1349 23.5593 41.5843 23.8837 40.6664H29.3373V44.6646H23.8837C23.5593 43.7468 22.6206 43.1959 21.661 43.3605C20.7015 43.5252 20 44.3572 20 45.331C20 46.3045 20.7015 47.1365 21.661 47.3011C22.6206 47.4658 23.5593 46.9152 23.8837 45.9974H29.3373V47.3301C29.3392 48.6534 30.1237 49.8501 31.3363 50.3792V52.661H28.6709C28.3029 52.661 28.0045 52.9594 28.0045 53.3274V56.1155C27.0866 56.4399 26.5361 57.3786 26.7007 58.3381C26.8654 59.2977 27.6974 59.9992 28.6709 59.9992C29.6447 59.9992 30.4767 59.2977 30.6413 58.3381C30.806 57.3786 30.2551 56.4399 29.3373 56.1155V53.9938H32.0027C32.3707 53.9938 32.6691 53.6954 32.6691 53.3274V50.6619H34.0018V55.9929C34.0057 56.0319 34.0135 56.0706 34.0252 56.108C33.0989 56.4227 32.5363 57.3617 32.6958 58.3268C32.8555 59.2921 33.6901 60.0002 34.6682 60.0002C35.6466 60.0002 36.4812 59.2921 36.6406 58.3268C36.8 57.3617 36.2375 56.4227 35.3114 56.108C35.3228 56.0706 35.3306 56.0319 35.3345 55.9929V50.6619H39.3327V55.9929C39.3366 56.0319 39.3444 56.0706 39.3562 56.108C38.4298 56.4227 37.8672 57.3617 38.0267 58.3268C38.1864 59.2921 39.021 60.0002 39.9991 60.0002C40.9775 60.0002 41.8121 59.2921 41.9715 58.3268C42.1309 57.3617 41.5684 56.4227 40.6424 56.108C40.6537 56.0706 40.6616 56.0319 40.6655 55.9929V50.6619H44.6637V55.9929C44.6676 56.0319 44.6754 56.0706 44.6871 56.108C43.7607 56.4227 43.1982 57.3617 43.3576 58.3268C43.5174 59.2921 44.3519 60.0002 45.33 60.0002C46.3084 60.0002 47.143 59.2921 47.3024 58.3268C47.4619 57.3617 46.8993 56.4227 45.9733 56.108C45.9847 56.0706 45.9925 56.0319 45.9964 55.9929V50.6619H47.3291V53.3274C47.3291 53.6954 47.6275 53.9938 47.9955 53.9938H50.6609V56.1155C49.7431 56.4399 49.1925 57.3786 49.3572 58.3381C49.5218 59.2977 50.3538 59.9992 51.3273 59.9992C52.3012 59.9992 53.1331 59.2977 53.2978 58.3381C53.4624 57.3786 52.9116 56.4399 51.9937 56.1155V53.3274C51.9937 52.9594 51.6953 52.661 51.3273 52.661H48.6618V50.3792C49.8745 49.8501 50.6593 48.6534 50.6609 47.3301V45.9974H56.1145C56.4393 46.9152 57.3776 47.4658 58.3375 47.3011C59.297 47.1365 59.9985 46.3045 59.9985 45.331C59.9985 44.3572 59.297 43.5252 58.3375 43.3605C57.3776 43.1959 56.4393 43.7468 56.1145 44.6646H50.6609V40.6664H56.1145C56.4393 41.5843 57.3776 42.1349 58.3375 41.9702C59.297 41.8056 59.9985 40.9736 59.9985 40.0001C59.9985 39.0262 59.297 38.1943 58.3375 38.0296C57.3776 37.865 56.4393 38.4158 56.1145 39.3337H50.6609V35.3355ZM57.991 34.0028C58.359 34.0028 58.6573 34.3012 58.6573 34.6692C58.6573 35.0372 58.359 35.3355 57.991 35.3355C57.623 35.3355 57.3246 35.0372 57.3246 34.6692C57.3246 34.3012 57.623 34.0028 57.991 34.0028ZM51.3273 21.3418C51.6953 21.3418 51.9937 21.6402 51.9937 22.0082C51.9937 22.3762 51.6953 22.6746 51.3273 22.6746C50.9593 22.6746 50.6609 22.3762 50.6609 22.0082C50.6609 21.6402 50.9593 21.3418 51.3273 21.3418ZM45.33 21.3418C45.698 21.3418 45.9964 21.6402 45.9964 22.0082C45.9964 22.3762 45.698 22.6746 45.33 22.6746C44.962 22.6746 44.6637 22.3762 44.6637 22.0082C44.6637 21.6402 44.962 21.3418 45.33 21.3418ZM39.9991 21.3418C40.3671 21.3418 40.6655 21.6402 40.6655 22.0082C40.6655 22.3762 40.3671 22.6746 39.9991 22.6746C39.6311 22.6746 39.3327 22.3762 39.3327 22.0082C39.3327 21.6402 39.6311 21.3418 39.9991 21.3418ZM34.6682 21.3418C35.0362 21.3418 35.3345 21.6402 35.3345 22.0082C35.3345 22.3762 35.0362 22.6746 34.6682 22.6746C34.3002 22.6746 34.0018 22.3762 34.0018 22.0082C34.0018 21.6402 34.3002 21.3418 34.6682 21.3418ZM28.6709 21.3418C29.0389 21.3418 29.3373 21.6402 29.3373 22.0082C29.3373 22.3762 29.0389 22.6746 28.6709 22.6746C28.3029 22.6746 28.0045 22.3762 28.0045 22.0082C28.0045 21.6402 28.3029 21.3418 28.6709 21.3418ZM22.0072 35.3355C21.6392 35.3355 21.3409 35.0372 21.3409 34.6692C21.3409 34.3012 21.6392 34.0028 22.0072 34.0028C22.3752 34.0028 22.6736 34.3012 22.6736 34.6692C22.6736 35.0372 22.3752 35.3355 22.0072 35.3355ZM22.0072 40.6664C21.6392 40.6664 21.3409 40.3681 21.3409 40.0001C21.3409 39.6321 21.6392 39.3337 22.0072 39.3337C22.3752 39.3337 22.6736 39.6321 22.6736 40.0001C22.6736 40.3681 22.3752 40.6664 22.0072 40.6664ZM22.0072 45.9974C21.6392 45.9974 21.3409 45.699 21.3409 45.331C21.3409 44.963 21.6392 44.6646 22.0072 44.6646C22.3752 44.6646 22.6736 44.963 22.6736 45.331C22.6736 45.699 22.3752 45.9974 22.0072 45.9974ZM28.6709 58.6583C28.3029 58.6583 28.0045 58.3599 28.0045 57.9919C28.0045 57.624 28.3029 57.3256 28.6709 57.3256C29.0389 57.3256 29.3373 57.624 29.3373 57.9919C29.3373 58.3599 29.0389 58.6583 28.6709 58.6583ZM34.6682 58.6583C34.3002 58.6583 34.0018 58.3599 34.0018 57.9919C34.0018 57.624 34.3002 57.3256 34.6682 57.3256C35.0362 57.3256 35.3345 57.624 35.3345 57.9919C35.3345 58.3599 35.0362 58.6583 34.6682 58.6583ZM39.9991 58.6583C39.6311 58.6583 39.3327 58.3599 39.3327 57.9919C39.3327 57.624 39.6311 57.3256 39.9991 57.3256C40.3671 57.3256 40.6655 57.624 40.6655 57.9919C40.6655 58.3599 40.3671 58.6583 39.9991 58.6583ZM45.33 58.6583C44.962 58.6583 44.6637 58.3599 44.6637 57.9919C44.6637 57.624 44.962 57.3256 45.33 57.3256C45.698 57.3256 45.9964 57.624 45.9964 57.9919C45.9964 58.3599 45.698 58.6583 45.33 58.6583ZM51.3273 58.6583C50.9593 58.6583 50.6609 58.3599 50.6609 57.9919C50.6609 57.624 50.9593 57.3256 51.3273 57.3256C51.6953 57.3256 51.9937 57.624 51.9937 57.9919C51.9937 58.3599 51.6953 58.6583 51.3273 58.6583ZM57.991 44.6646C58.359 44.6646 58.6573 44.963 58.6573 45.331C58.6573 45.699 58.359 45.9974 57.991 45.9974C57.623 45.9974 57.3246 45.699 57.3246 45.331C57.3246 44.963 57.623 44.6646 57.991 44.6646ZM57.991 39.3337C58.359 39.3337 58.6573 39.6321 58.6573 40.0001C58.6573 40.3681 58.359 40.6664 57.991 40.6664C57.623 40.6664 57.3246 40.3681 57.3246 40.0001C57.3246 39.6321 57.623 39.3337 57.991 39.3337ZM49.3282 47.3301C49.3282 48.4341 48.4331 49.3292 47.3291 49.3292H32.6691C31.5651 49.3292 30.67 48.4341 30.67 47.3301V32.6701C30.67 31.5661 31.5651 30.671 32.6691 30.671H47.3291C48.4331 30.671 49.3282 31.5661 49.3282 32.6701V47.3301Z" fill="white"/>
<path d="M46.0125 33.3359H34.0179C33.6499 33.3359 33.3516 33.6343 33.3516 34.0023V45.9969C33.3516 46.3649 33.6499 46.6632 34.0179 46.6632H46.0125C46.3805 46.6632 46.6789 46.3649 46.6789 45.9969V34.0023C46.6789 33.6343 46.3805 33.3359 46.0125 33.3359ZM45.3461 45.3305H34.6843V34.6687H45.3461V45.3305Z" fill="white"/>
<path d="M42.6857 43.332C42.6857 43.7 42.984 43.9983 43.3521 43.9983C43.7201 43.9983 44.0184 43.7 44.0184 43.332V38.2363C44.0184 37.0023 43.0181 36.002 41.784 36.002H39.3539C38.9858 36.002 38.6875 36.3003 38.6875 36.6683C38.6875 37.0363 38.9858 37.3347 39.3539 37.3347H40.6866C41.7907 37.3347 42.6857 38.2297 42.6857 39.3338V43.332Z" fill="#1FED93"/>
<path d="M41.3465 43.332C41.3465 42.964 41.0482 42.6656 40.6802 42.6656H39.3475C38.2434 42.6656 37.3484 41.7706 37.3484 40.6665V36.6683C37.3484 36.3003 37.05 36.002 36.682 36.002C36.314 36.002 36.0156 36.3003 36.0156 36.6683V41.764C36.0156 42.998 37.016 43.9983 38.25 43.9983H40.6802C41.0482 43.9983 41.3465 43.7 41.3465 43.332Z" fill="#1FED93"/>
</g>
<defs>
<clipPath id="clip0_10293_383918">
<rect width="39.9985" height="40.0002" fill="white" transform="translate(20 20)"/>
</clipPath>
</defs>
</svg>
