<svg width="40" height="40" viewBox="0 0 40 40" fill="none" xmlns="http://www.w3.org/2000/svg">
<path d="M35 4.0625H22.5C20.4321 4.0625 18.75 5.74463 18.75 7.8125V25.3125C18.75 27.3804 20.4321 29.0625 22.5 29.0625H35C37.0679 29.0625 38.75 27.3804 38.75 25.3125V7.8125C38.75 5.74463 37.0679 4.0625 35 4.0625ZM37.5 25.3125C37.5 26.691 36.3788 27.8125 35 27.8125H22.5C21.1212 27.8125 20 26.691 20 25.3125V7.8125C20 6.43402 21.1212 5.3125 22.5 5.3125H35C36.3788 5.3125 37.5 6.43402 37.5 7.8125V25.3125Z" fill="white"/>
<path d="M3.64545 35.9375H32.6201C36.0846 35.7694 35.6558 30.5616 32.1703 30.9375C32.9865 30.2877 32.1144 29.1821 31.3835 29.9368C30.9117 30.5634 30.164 30.9375 29.3828 30.9375H6.88275C5.50397 30.9375 4.38275 29.816 4.38275 28.4375V12.8125C4.38275 11.434 5.50397 10.3125 6.88275 10.3125H17.5077C18.3259 10.3043 18.3305 9.07337 17.5077 9.0625H6.88275C4.81488 9.0625 3.13275 10.7446 3.13275 12.8125V28.4375C3.13275 29.3985 3.49911 30.2732 4.09555 30.9375C0.595178 30.5724 0.184378 35.7576 3.64545 35.9375ZM21.0899 32.1875C20.8738 32.5607 20.4698 32.8125 20.0077 32.8125H16.2578C15.7957 32.8125 15.3917 32.5607 15.1756 32.1875H21.0899ZM2.50775 33.3252C2.50775 32.6978 3.01801 32.1875 3.64545 32.1875H13.8465C14.126 33.2627 15.0961 34.0625 16.2578 34.0625H20.0077C21.1694 34.0625 22.1395 33.2627 22.419 32.1875H32.6201C33.3481 32.1817 33.8439 32.8512 33.7577 33.5498C33.7577 34.1772 33.2475 34.6875 32.6201 34.6875H3.64545C2.9186 34.6933 2.42074 34.0238 2.50775 33.3252Z" fill="white"/>
<path d="M17.5 14.0625C17.5 12.684 16.3788 11.5625 15 11.5625H8.75C7.37122 11.5625 6.25 12.684 6.25 14.0625V17.1875C6.25 18.566 7.37122 19.6875 8.75 19.6875H15C16.3788 19.6875 17.5 18.566 17.5 17.1875V14.0625ZM16.25 17.1875C16.25 17.8769 15.6891 18.4375 15 18.4375H8.75C8.06091 18.4375 7.5 17.8769 7.5 17.1875V14.0625C7.5 13.3731 8.06091 12.8125 8.75 12.8125H15C15.6891 12.8125 16.25 13.3731 16.25 14.0625V17.1875Z" fill="#1FED93"/>
<path d="M15 20.9375H8.75C7.37122 20.9375 6.25 22.059 6.25 23.4375V27.1875C6.25 28.566 7.37122 29.6875 8.75 29.6875H15C16.3788 29.6875 17.5 28.566 17.5 27.1875V23.4375C17.5 22.059 16.3788 20.9375 15 20.9375ZM16.25 27.1875C16.25 27.8769 15.6891 28.4375 15 28.4375H8.75C8.06091 28.4375 7.5 27.8769 7.5 27.1875V23.4375C7.5 22.7481 8.06091 22.1875 8.75 22.1875H15C15.6891 22.1875 16.25 22.7481 16.25 23.4375V27.1875Z" fill="#1FED93"/>
<path d="M23.75 14.0625H25.625C27.0038 14.0625 28.125 12.941 28.125 11.5625V9.0625C28.125 7.68402 27.0038 6.5625 25.625 6.5625H23.75C22.3712 6.5625 21.25 7.68402 21.25 9.0625V11.5625C21.25 12.941 22.3712 14.0625 23.75 14.0625ZM22.5 9.0625C22.5 8.37311 23.0609 7.8125 23.75 7.8125H25.625C26.3141 7.8125 26.875 8.37311 26.875 9.0625V11.5625C26.875 12.2519 26.3141 12.8125 25.625 12.8125H23.75C23.0609 12.8125 22.5 12.2519 22.5 11.5625V9.0625Z" fill="white"/>
<path d="M33.75 6.5625H31.875C30.4962 6.5625 29.375 7.68402 29.375 9.0625V11.5625C29.375 12.941 30.4962 14.0625 31.875 14.0625H33.75C35.1288 14.0625 36.25 12.941 36.25 11.5625V9.0625C36.25 7.68402 35.1288 6.5625 33.75 6.5625ZM35 11.5625C35 12.2519 34.4391 12.8125 33.75 12.8125H31.875C31.1859 12.8125 30.625 12.2519 30.625 11.5625V9.0625C30.625 8.37311 31.1859 7.8125 31.875 7.8125H33.75C34.4391 7.8125 35 8.37311 35 9.0625V11.5625Z" fill="white"/>
<path d="M28.125 20.3125V17.8125C28.125 16.434 27.0038 15.3125 25.625 15.3125H23.75C22.3712 15.3125 21.25 16.434 21.25 17.8125V20.3125C21.25 21.691 22.3712 22.8125 23.75 22.8125H25.625C27.0038 22.8125 28.125 21.691 28.125 20.3125ZM22.5 20.3125V17.8125C22.5 17.1231 23.0609 16.5625 23.75 16.5625H25.625C26.3141 16.5625 26.875 17.1231 26.875 17.8125V20.3125C26.875 21.0019 26.3141 21.5625 25.625 21.5625H23.75C23.0609 21.5625 22.5 21.0019 22.5 20.3125Z" fill="white"/>
<path d="M33.75 15.3125H31.875C30.4962 15.3125 29.375 16.434 29.375 17.8125V20.3125C29.375 21.691 30.4962 22.8125 31.875 22.8125H33.75C35.1288 22.8125 36.25 21.691 36.25 20.3125V17.8125C36.25 16.434 35.1288 15.3125 33.75 15.3125ZM35 20.3125C35 21.0019 34.4391 21.5625 33.75 21.5625H31.875C31.1859 21.5625 30.625 21.0019 30.625 20.3125V17.8125C30.625 17.1231 31.1859 16.5625 31.875 16.5625H33.75C34.4391 16.5625 35 17.1231 35 17.8125V20.3125Z" fill="white"/>
<path d="M33.1316 24.0625H24.3816C23.5627 24.0755 23.5579 25.2985 24.3816 25.3125H33.1316C33.9504 25.2995 33.9552 24.0765 33.1316 24.0625Z" fill="white"/>
</svg>
