<svg width="26" height="28" viewBox="0 0 26 28" fill="none" xmlns="http://www.w3.org/2000/svg">
<g clip-path="url(#clip0_10662_410622)">
<path d="M11.1703 11.5773C10.8518 11.7903 10.5784 12.0639 10.3656 12.3825C10.1528 12.7011 10.0049 13.0585 9.93022 13.4343C9.77946 14.1932 9.93636 14.981 10.3664 15.6242C10.7965 16.2675 11.4644 16.7135 12.2233 16.8643C12.9823 17.0151 13.77 16.8582 14.4133 16.4281C15.0565 15.9981 15.5026 15.3301 15.6534 14.5712C15.8041 13.8122 15.6472 13.0245 15.2172 12.3812C14.7871 11.738 14.1192 11.2919 13.3602 11.1412C12.6013 10.9904 11.8136 11.1473 11.1703 11.5773ZM18.9523 7.83672C18.668 7.55234 18.3234 7.32812 17.9461 7.18047C16.9562 6.79219 14.7961 6.80859 13.4016 6.825C13.1773 6.825 12.9695 6.83047 12.7891 6.83047C12.6086 6.83047 12.3953 6.83047 12.1656 6.825C10.7711 6.80859 8.62187 6.78672 7.63203 7.18047C7.25469 7.32812 6.91563 7.55234 6.62578 7.83672C6.33594 8.12109 6.11719 8.46562 5.96953 8.84297C5.58125 9.83281 5.60313 11.9984 5.61406 13.393C5.61406 13.6172 5.61953 13.825 5.61953 14C5.61953 14.175 5.61953 14.3828 5.61406 14.607C5.60313 16.0016 5.58125 18.1672 5.96953 19.157C6.11719 19.5344 6.34141 19.8734 6.62578 20.1633C6.91016 20.4531 7.25469 20.6719 7.63203 20.8195C8.62187 21.2078 10.782 21.1914 12.1766 21.175C12.4008 21.175 12.6086 21.1695 12.7891 21.1695C12.9695 21.1695 13.1828 21.1695 13.4125 21.175C14.807 21.1914 16.9562 21.2133 17.9461 20.8195C18.3234 20.6719 18.6625 20.4477 18.9523 20.1633C19.2422 19.8789 19.4609 19.5344 19.6086 19.157C20.0023 18.1727 19.9805 16.018 19.9641 14.618C19.9641 14.3883 19.9586 14.175 19.9586 13.9945C19.9586 13.8141 19.9586 13.6062 19.9641 13.3711C19.9805 11.9766 20.0023 9.82187 19.6086 8.83203C19.4609 8.45469 19.2367 8.11563 18.9523 7.82578V7.83672ZM15.2828 10.2703C16.272 10.9317 16.9579 11.9589 17.1897 13.1261C17.4215 14.2932 17.1801 15.5046 16.5188 16.4938C16.1913 16.9835 15.7705 17.404 15.2805 17.7312C14.7905 18.0584 14.2409 18.2859 13.663 18.4006C12.4959 18.6324 11.2845 18.3911 10.2953 17.7297C9.30614 17.069 8.61992 16.0425 8.38763 14.8759C8.15533 13.7093 8.39598 12.4982 9.05664 11.509C9.7173 10.5198 10.7438 9.83359 11.9105 9.6013C13.0771 9.369 14.2882 9.60965 15.2773 10.2703H15.2828ZM16.8797 10.1992C16.7102 10.0844 16.5734 9.92031 16.4914 9.72891C16.4094 9.5375 16.393 9.32969 16.4313 9.12188C16.4695 8.91406 16.5734 8.73359 16.7156 8.58594C16.8578 8.43828 17.0492 8.33984 17.2516 8.30156C17.4539 8.26328 17.6672 8.27969 17.8586 8.36172C18.05 8.44375 18.2141 8.575 18.3289 8.74453C18.4437 8.91406 18.5039 9.11641 18.5039 9.32422C18.5039 9.46094 18.4766 9.59766 18.4273 9.72344C18.3781 9.84922 18.2961 9.96406 18.2031 10.0625C18.1102 10.1609 17.9898 10.2375 17.8641 10.2922C17.7383 10.3469 17.6016 10.3742 17.4648 10.3742C17.257 10.3742 17.0547 10.3141 16.8852 10.1992H16.8797ZM25.0391 5.25C25.0391 3.31953 23.4695 1.75 21.5391 1.75H4.03906C2.10859 1.75 0.539062 3.31953 0.539062 5.25V22.75C0.539062 24.6805 2.10859 26.25 4.03906 26.25H21.5391C23.4695 26.25 25.0391 24.6805 25.0391 22.75V5.25ZM20.0625 21.2734C19.0398 22.2961 17.7984 22.6187 16.3984 22.6898C14.9547 22.7719 10.6234 22.7719 9.17969 22.6898C7.77969 22.6187 6.53828 22.2961 5.51562 21.2734C4.49297 20.2508 4.17031 19.0094 4.10469 17.6094C4.02266 16.1656 4.02266 11.8344 4.10469 10.3906C4.17578 8.99062 4.49297 7.74922 5.51562 6.72656C6.53828 5.70391 7.78516 5.38125 9.17969 5.31562C10.6234 5.23359 14.9547 5.23359 16.3984 5.31562C17.7984 5.38672 19.0398 5.70391 20.0625 6.72656C21.0852 7.74922 21.4078 8.99062 21.4734 10.3906C21.5555 11.8289 21.5555 16.1547 21.4734 17.6039C21.4023 19.0039 21.0852 20.2453 20.0625 21.268V21.2734Z" fill="white"/>
</g>
<defs>
<clipPath id="clip0_10662_410622">
<rect width="24.5" height="28" fill="white" transform="translate(0.539062)"/>
</clipPath>
</defs>
</svg>
