<svg width="25" height="28" viewBox="0 0 25 28" fill="none" xmlns="http://www.w3.org/2000/svg">
<g clip-path="url(#clip0_10761_404077)">
<path d="M3.66406 1.75C1.73359 1.75 0.164062 3.31953 0.164062 5.25V22.75C0.164062 24.6805 1.73359 26.25 3.66406 26.25H9.03438V18.2766H6.14687V14H9.03438V12.157C9.03438 7.39375 11.1891 5.18438 15.8703 5.18438C16.7563 5.18438 18.2875 5.35937 18.9164 5.53437V9.40625C18.5883 9.37344 18.0141 9.35156 17.2977 9.35156C15.0008 9.35156 14.1148 10.2211 14.1148 12.4797V14H18.6867L17.8992 18.2766H14.1094V26.25H21.1641C23.0945 26.25 24.6641 24.6805 24.6641 22.75V5.25C24.6641 3.31953 23.0945 1.75 21.1641 1.75H3.66406Z" fill="#001081"/>
</g>
<defs>
<clipPath id="clip0_10761_404077">
<rect width="24.5" height="28" fill="white" transform="translate(0.164062)"/>
</clipPath>
</defs>
</svg>
