<svg width="26" height="28" viewBox="0 0 26 28" fill="none" xmlns="http://www.w3.org/2000/svg">
<g clip-path="url(#clip0_10662_410492)">
<path d="M4.03906 1.75C2.10859 1.75 0.539062 3.31953 0.539062 5.25V22.75C0.539062 24.6805 2.10859 26.25 4.03906 26.25H9.40938V18.2766H6.52187V14H9.40938V12.157C9.40938 7.39375 11.5641 5.18438 16.2453 5.18438C17.1313 5.18438 18.6625 5.35937 19.2914 5.53437V9.40625C18.9633 9.37344 18.3891 9.35156 17.6727 9.35156C15.3758 9.35156 14.4898 10.2211 14.4898 12.4797V14H19.0617L18.2742 18.2766H14.4844V26.25H21.5391C23.4695 26.25 25.0391 24.6805 25.0391 22.75V5.25C25.0391 3.31953 23.4695 1.75 21.5391 1.75H4.03906Z" fill="white"/>
</g>
<defs>
<clipPath id="clip0_10662_410492">
<rect width="24.5" height="28" fill="white" transform="translate(0.539062)"/>
</clipPath>
</defs>
</svg>
