<svg width="28" height="18" viewBox="0 0 28 18" fill="none" xmlns="http://www.w3.org/2000/svg">
<g clip-path="url(#clip0_12382_56107)">
<rect x="0.539062" width="27" height="18" rx="3" fill="white"/>
<path fill-rule="evenodd" clip-rule="evenodd" d="M0.539062 0H12.1105V8.4H0.539062V0Z" fill="#1A47B8"/>
<path fill-rule="evenodd" clip-rule="evenodd" d="M12.1105 0V1.2H27.5391V0H12.1105ZM12.1105 2.4V3.6H27.5391V2.4H12.1105ZM12.1105 4.8V6H27.5391V4.8H12.1105ZM12.1105 7.2V8.4H27.5391V7.2H12.1105ZM0.539062 9.6V10.8H27.5391V9.6H0.539062ZM0.539062 12V13.2H27.5391V12H0.539062ZM0.539062 14.4V15.6H27.5391V14.4H0.539062ZM0.539062 16.8V18H27.5391V16.8H0.539062Z" fill="#F93939"/>
<path fill-rule="evenodd" clip-rule="evenodd" d="M1.82812 1.2002V2.4002H3.11384V1.2002H1.82812ZM4.39955 1.2002V2.4002H5.68527V1.2002H4.39955ZM6.97098 1.2002V2.4002H8.2567V1.2002H6.97098ZM9.54241 1.2002V2.4002H10.8281V1.2002H9.54241ZM8.2567 2.4002V3.6002H9.54241V2.4002H8.2567ZM5.68527 2.4002V3.6002H6.97098V2.4002H5.68527ZM3.11384 2.4002V3.6002H4.39955V2.4002H3.11384ZM1.82812 3.6002V4.8002H3.11384V3.6002H1.82812ZM4.39955 3.6002V4.8002H5.68527V3.6002H4.39955ZM6.97098 3.6002V4.8002H8.2567V3.6002H6.97098ZM9.54241 3.6002V4.8002H10.8281V3.6002H9.54241ZM1.82812 6.0002V7.2002H3.11384V6.0002H1.82812ZM4.39955 6.0002V7.2002H5.68527V6.0002H4.39955ZM6.97098 6.0002V7.2002H8.2567V6.0002H6.97098ZM9.54241 6.0002V7.2002H10.8281V6.0002H9.54241ZM8.2567 4.8002V6.0002H9.54241V4.8002H8.2567ZM5.68527 4.8002V6.0002H6.97098V4.8002H5.68527ZM3.11384 4.8002V6.0002H4.39955V4.8002H3.11384Z" fill="white"/>
</g>
<defs>
<clipPath id="clip0_12382_56107">
<rect x="0.539062" width="27" height="18" rx="3" fill="white"/>
</clipPath>
</defs>
</svg>
