<svg width="11" height="16" viewBox="0 0 11 16" fill="none" xmlns="http://www.w3.org/2000/svg">
<path d="M9.97602 5.23879C10.2413 5.39819 10.4413 5.65372 10.5381 5.95689V5.95558C10.6347 6.25866 10.6214 6.5882 10.5007 6.88173C10.3801 7.17525 10.1604 7.41235 9.88346 7.54805L9.74728 7.60543L6.85397 8.61099V9.88522L9.14264 13.4719L9.21634 13.6023C9.35577 13.8871 9.39007 14.2155 9.31273 14.525C9.2354 14.8345 9.05181 15.1035 8.79689 15.281C8.54196 15.4584 8.23347 15.5318 7.93007 15.4873C7.62667 15.4428 7.34951 15.2834 7.1513 15.0395L7.06385 14.9182L5.6047 12.6332L4.14555 14.9182L4.05061 15.0487C3.86796 15.2691 3.61985 15.4193 3.34586 15.4754C3.07187 15.5314 2.7878 15.49 2.53899 15.3578L2.41281 15.2795L2.28789 15.1804C2.07672 14.9897 1.93282 14.7307 1.87915 14.4446C1.82549 14.1586 1.86515 13.862 1.99181 13.6023L2.06676 13.4719L4.35543 9.88522V8.6123L1.46212 7.60674L1.32595 7.54935C1.04944 7.41327 0.830317 7.17606 0.710075 6.88265C0.589833 6.58923 0.576815 6.25997 0.673484 5.95721C0.770153 5.65444 0.969799 5.39919 1.23462 5.23978C1.49945 5.08036 1.81107 5.02785 2.11049 5.09219L2.25166 5.13131L5.6047 6.2986L8.95775 5.13131L9.09891 5.09219C9.39861 5.02723 9.71072 5.0794 9.97602 5.23879Z" fill="#001081"/>
<path d="M4.27965 1.073C4.63107 0.706114 5.10771 0.5 5.6047 0.5C6.10169 0.5 6.57833 0.706114 6.92975 1.073C7.28118 1.43988 7.47861 1.93749 7.47861 2.45634C7.47861 2.9752 7.28118 3.4728 6.92975 3.83968C6.57833 4.20657 6.10169 4.41268 5.6047 4.41268C5.10771 4.41268 4.63107 4.20657 4.27965 3.83968C3.92822 3.4728 3.73079 2.9752 3.73079 2.45634C3.73079 1.93749 3.92822 1.43988 4.27965 1.073Z" fill="#001081"/>
<path d="M9.97602 5.23879C10.2413 5.39819 10.4413 5.65372 10.5381 5.95689V5.95558C10.6347 6.25866 10.6214 6.5882 10.5007 6.88173C10.3801 7.17525 10.1604 7.41235 9.88346 7.54805L9.74728 7.60543L6.85397 8.61099V9.88522L9.14264 13.4719L9.21634 13.6023C9.35577 13.8871 9.39007 14.2155 9.31273 14.525C9.2354 14.8345 9.05181 15.1035 8.79689 15.281C8.54196 15.4584 8.23347 15.5318 7.93007 15.4873C7.62667 15.4428 7.34951 15.2834 7.1513 15.0395L7.06385 14.9182L5.6047 12.6332L4.14555 14.9182L4.05061 15.0487C3.86796 15.2691 3.61985 15.4193 3.34586 15.4754C3.07187 15.5314 2.7878 15.49 2.53899 15.3578L2.41281 15.2795L2.28789 15.1804C2.07672 14.9897 1.93282 14.7307 1.87915 14.4446C1.82549 14.1586 1.86515 13.862 1.99181 13.6023L2.06676 13.4719L4.35543 9.88522V8.6123L1.46212 7.60674L1.32595 7.54935C1.04944 7.41327 0.830317 7.17606 0.710075 6.88265C0.589833 6.58923 0.576815 6.25997 0.673484 5.95721C0.770153 5.65444 0.969799 5.39919 1.23462 5.23978C1.49945 5.08036 1.81107 5.02785 2.11049 5.09219L2.25166 5.13131L5.6047 6.2986L8.95775 5.13131L9.09891 5.09219C9.39861 5.02723 9.71072 5.0794 9.97602 5.23879Z" stroke="white"/>
<path d="M4.27965 1.073C4.63107 0.706114 5.10771 0.5 5.6047 0.5C6.10169 0.5 6.57833 0.706114 6.92975 1.073C7.28118 1.43988 7.47861 1.93749 7.47861 2.45634C7.47861 2.9752 7.28118 3.4728 6.92975 3.83968C6.57833 4.20657 6.10169 4.41268 5.6047 4.41268C5.10771 4.41268 4.63107 4.20657 4.27965 3.83968C3.92822 3.4728 3.73079 2.9752 3.73079 2.45634C3.73079 1.93749 3.92822 1.43988 4.27965 1.073Z" stroke="white"/>
</svg>
